<mxfile host="app.diagrams.net" agent="Mozilla/5.0 (Windows NT 10.0; Win64; x64) AppleWebKit/537.36 (KHTML, like Gecko) Chrome/141.0.0.0 Safari/537.36 Edg/141.0.0.0" version="28.2.7">
  <diagram name="Página-1" id="0aIHRvgHVLBM2SYo3jGg">
    <mxGraphModel dx="1959" dy="1237" grid="1" gridSize="10" guides="1" tooltips="1" connect="1" arrows="1" fold="1" page="1" pageScale="1" pageWidth="827" pageHeight="1169" math="0" shadow="0">
      <root>
        <mxCell id="0" />
        <mxCell id="1" parent="0" />
        <mxCell id="cFMmKUc3oPXXs-PaDQXI-36" value="" style="group" vertex="1" connectable="0" parent="1">
          <mxGeometry x="210" y="59" width="440" height="1050" as="geometry" />
        </mxCell>
        <mxCell id="cFMmKUc3oPXXs-PaDQXI-4" style="edgeStyle=orthogonalEdgeStyle;rounded=0;orthogonalLoop=1;jettySize=auto;html=1;exitX=0.5;exitY=1;exitDx=0;exitDy=0;dashed=1;dashPattern=8 8;strokeWidth=2;" edge="1" parent="cFMmKUc3oPXXs-PaDQXI-36" source="cFMmKUc3oPXXs-PaDQXI-1" target="cFMmKUc3oPXXs-PaDQXI-3">
          <mxGeometry relative="1" as="geometry" />
        </mxCell>
        <mxCell id="cFMmKUc3oPXXs-PaDQXI-5" value="&lt;pre style=&quot;font-size: 9.8pt;&quot;&gt;&lt;br&gt;&lt;/pre&gt;" style="edgeLabel;html=1;align=center;verticalAlign=middle;resizable=0;points=[];" vertex="1" connectable="0" parent="cFMmKUc3oPXXs-PaDQXI-4">
          <mxGeometry x="-0.3005" y="-1" relative="1" as="geometry">
            <mxPoint x="1" y="14" as="offset" />
          </mxGeometry>
        </mxCell>
        <mxCell id="cFMmKUc3oPXXs-PaDQXI-6" value="&lt;pre style=&quot;font-size: 9.8pt;&quot;&gt;&lt;font style=&quot;color: rgb(0, 0, 0);&quot; face=&quot;Lucida Console&quot;&gt;HTTP/HTTPS&lt;br&gt; REST API (JSON)&lt;br&gt;JWT Authentication&lt;/font&gt;&lt;/pre&gt;" style="edgeLabel;html=1;align=center;verticalAlign=middle;resizable=0;points=[];" vertex="1" connectable="0" parent="cFMmKUc3oPXXs-PaDQXI-4">
          <mxGeometry x="-0.1376" y="-1" relative="1" as="geometry">
            <mxPoint as="offset" />
          </mxGeometry>
        </mxCell>
        <mxCell id="cFMmKUc3oPXXs-PaDQXI-1" value="&lt;font face=&quot;Lucida Console&quot;&gt;FRONTEND&lt;/font&gt;&lt;div&gt;&lt;font face=&quot;Lucida Console&quot;&gt;(Angular - Aplicacion SPA)&lt;/font&gt;&lt;/div&gt;&lt;div&gt;&lt;pre style=&quot;box-sizing: border-box; margin-top: 16px; margin-bottom: 16px; font-variant-numeric: normal; font-variant-east-asian: normal; font-variant-alternates: normal; font-size-adjust: none; font-kerning: auto; font-optical-sizing: auto; font-feature-settings: normal; font-variation-settings: normal; font-variant-position: normal; font-variant-emoji: normal; font-stretch: normal; font-size: 0.85em; line-height: 1.45; padding: 16px; overflow: auto; border-radius: 3px; color: rgb(8, 8, 8); background-color: rgba(212, 222, 231, 0.247); text-align: start;&quot; class=&quot;code-fence&quot;&gt;&lt;code style=&quot;box-sizing: border-box; font-variant-numeric: normal; font-variant-east-asian: normal; font-variant-alternates: normal; font-variant-position: normal; font-variant-emoji: normal; font-kerning: auto; font-optical-sizing: auto; font-feature-settings: normal; font-variation-settings: normal; font-stretch: normal; font-size: 11.05px; line-height: inherit; padding: 0px; margin: 0px; border-radius: 3px; background: transparent; word-break: normal; border: 0px; display: inline; max-width: initial; overflow: initial; overflow-wrap: normal;&quot;&gt;&lt;span style=&quot;box-sizing: border-box;&quot;&gt;&lt;font face=&quot;Lucida Console&quot;&gt; Componentes UI │ State Management │ HTTP Client (Axios/Fetch)&lt;/font&gt;&lt;/span&gt;&lt;/code&gt;&lt;/pre&gt;&lt;/div&gt;&lt;div&gt;&lt;br&gt;&lt;/div&gt;" style="rounded=0;whiteSpace=wrap;html=1;" vertex="1" parent="cFMmKUc3oPXXs-PaDQXI-36">
          <mxGeometry width="440" height="140" as="geometry" />
        </mxCell>
        <mxCell id="cFMmKUc3oPXXs-PaDQXI-32" style="edgeStyle=orthogonalEdgeStyle;rounded=0;orthogonalLoop=1;jettySize=auto;html=1;exitX=0.5;exitY=1;exitDx=0;exitDy=0;entryX=0.5;entryY=0;entryDx=0;entryDy=0;dashed=1;dashPattern=8 8;" edge="1" parent="cFMmKUc3oPXXs-PaDQXI-36" source="cFMmKUc3oPXXs-PaDQXI-3" target="cFMmKUc3oPXXs-PaDQXI-31">
          <mxGeometry relative="1" as="geometry" />
        </mxCell>
        <mxCell id="cFMmKUc3oPXXs-PaDQXI-33" value="&lt;font face=&quot;Lucida Console&quot;&gt;JDBC / SQL&lt;/font&gt;" style="edgeLabel;html=1;align=center;verticalAlign=middle;resizable=0;points=[];" vertex="1" connectable="0" parent="cFMmKUc3oPXXs-PaDQXI-32">
          <mxGeometry x="0.0709" y="-3" relative="1" as="geometry">
            <mxPoint as="offset" />
          </mxGeometry>
        </mxCell>
        <mxCell id="cFMmKUc3oPXXs-PaDQXI-3" value="&lt;pre style=&quot;box-sizing: border-box; margin-top: 16px; margin-bottom: 16px; font-variant-numeric: normal; font-variant-east-asian: normal; font-variant-alternates: normal; font-size-adjust: none; font-kerning: auto; font-optical-sizing: auto; font-feature-settings: normal; font-variation-settings: normal; font-variant-position: normal; font-variant-emoji: normal; font-stretch: normal; font-size: 0.85em; line-height: 1.45; font-family: &amp;quot;JetBrains Mono&amp;quot;, Consolas, &amp;quot;Liberation Mono&amp;quot;, Menlo, Courier, monospace; padding: 16px; overflow: auto; border-radius: 3px; color: rgb(8, 8, 8); background-color: rgba(212, 222, 231, 0.247); text-align: start;&quot; class=&quot;code-fence&quot;&gt;&lt;br&gt;&lt;/pre&gt;&lt;pre style=&quot;box-sizing: border-box; margin-top: 16px; margin-bottom: 16px; font-variant-numeric: normal; font-variant-east-asian: normal; font-variant-alternates: normal; font-size-adjust: none; font-kerning: auto; font-optical-sizing: auto; font-feature-settings: normal; font-variation-settings: normal; font-variant-position: normal; font-variant-emoji: normal; font-stretch: normal; font-size: 0.85em; line-height: 1.45; font-family: &amp;quot;JetBrains Mono&amp;quot;, Consolas, &amp;quot;Liberation Mono&amp;quot;, Menlo, Courier, monospace; padding: 16px; overflow: auto; border-radius: 3px; color: rgb(8, 8, 8); background-color: rgba(212, 222, 231, 0.247); text-align: start;&quot; class=&quot;code-fence&quot;&gt;  &lt;/pre&gt;" style="rounded=0;whiteSpace=wrap;html=1;" vertex="1" parent="cFMmKUc3oPXXs-PaDQXI-36">
          <mxGeometry y="270" width="440" height="590" as="geometry" />
        </mxCell>
        <mxCell id="cFMmKUc3oPXXs-PaDQXI-9" value="&lt;pre style=&quot;font-variant-numeric: normal; font-variant-east-asian: normal; font-variant-alternates: normal; font-size-adjust: none; font-kerning: auto; font-optical-sizing: auto; font-feature-settings: normal; font-variation-settings: normal; font-variant-position: normal; font-variant-emoji: normal; font-stretch: normal; font-size: 0.85em; line-height: 1.45; font-family: &amp;quot;JetBrains Mono&amp;quot;, Consolas, &amp;quot;Liberation Mono&amp;quot;, Menlo, Courier, monospace; box-sizing: border-box; margin-top: 16px; margin-bottom: 16px; padding: 16px; overflow: auto; border-radius: 3px; color: rgb(8, 8, 8); background-color: rgba(212, 222, 231, 0.247); text-align: start;&quot; class=&quot;code-fence&quot;&gt;(Spring Boot Application) &lt;/pre&gt;" style="text;html=1;whiteSpace=wrap;strokeColor=none;fillColor=none;align=center;verticalAlign=middle;rounded=0;" vertex="1" parent="cFMmKUc3oPXXs-PaDQXI-36">
          <mxGeometry x="140" y="310" width="160" height="30" as="geometry" />
        </mxCell>
        <mxCell id="cFMmKUc3oPXXs-PaDQXI-10" value="&lt;pre style=&quot;box-sizing: border-box; margin-top: 16px; margin-bottom: 16px; font-variant-numeric: normal; font-variant-east-asian: normal; font-variant-alternates: normal; font-size-adjust: none; font-kerning: auto; font-optical-sizing: auto; font-feature-settings: normal; font-variation-settings: normal; font-variant-position: normal; font-variant-emoji: normal; font-stretch: normal; line-height: 1.45; font-family: &amp;quot;JetBrains Mono&amp;quot;, Consolas, &amp;quot;Liberation Mono&amp;quot;, Menlo, Courier, monospace; padding: 16px; overflow: auto; border-radius: 3px; color: rgb(8, 8, 8); background-color: rgba(212, 222, 231, 0.247); text-align: start;&quot; class=&quot;code-fence&quot;&gt;&lt;code style=&quot;box-sizing: border-box; font-variant-numeric: normal; font-variant-east-asian: normal; font-variant-alternates: normal; font-variant-position: normal; font-variant-emoji: normal; font-kerning: auto; font-optical-sizing: auto; font-feature-settings: normal; font-variation-settings: normal; font-stretch: normal; line-height: inherit; font-family: &amp;quot;JetBrains Mono&amp;quot;, Consolas, &amp;quot;Liberation Mono&amp;quot;, Menlo, Courier, monospace; padding: 0px; margin: 0px; border-radius: 3px; background: transparent; word-break: normal; border: 0px; display: inline; max-width: initial; overflow: initial; overflow-wrap: normal;&quot;&gt;&lt;span style=&quot;box-sizing: border-box;&quot;&gt;&lt;font style=&quot;font-size: 14px;&quot;&gt;BACKEND - SICOFAR-K&lt;/font&gt;&lt;/span&gt;&lt;/code&gt;&lt;/pre&gt;" style="text;html=1;whiteSpace=wrap;strokeColor=none;fillColor=none;align=center;verticalAlign=middle;rounded=0;" vertex="1" parent="cFMmKUc3oPXXs-PaDQXI-36">
          <mxGeometry x="150" y="290" width="130" height="30" as="geometry" />
        </mxCell>
        <mxCell id="cFMmKUc3oPXXs-PaDQXI-19" style="edgeStyle=orthogonalEdgeStyle;rounded=0;orthogonalLoop=1;jettySize=auto;html=1;exitX=0.5;exitY=1;exitDx=0;exitDy=0;entryX=0.5;entryY=0;entryDx=0;entryDy=0;dashed=1;dashPattern=8 8;" edge="1" parent="cFMmKUc3oPXXs-PaDQXI-36" source="cFMmKUc3oPXXs-PaDQXI-11" target="cFMmKUc3oPXXs-PaDQXI-16">
          <mxGeometry relative="1" as="geometry" />
        </mxCell>
        <mxCell id="cFMmKUc3oPXXs-PaDQXI-11" value="" style="rounded=0;whiteSpace=wrap;html=1;" vertex="1" parent="cFMmKUc3oPXXs-PaDQXI-36">
          <mxGeometry x="12" y="350" width="416" height="120" as="geometry" />
        </mxCell>
        <mxCell id="cFMmKUc3oPXXs-PaDQXI-12" value="&lt;font face=&quot;Lucida Console&quot;&gt;Capa de Presentacion&lt;/font&gt;" style="text;html=1;whiteSpace=wrap;strokeColor=none;fillColor=none;align=center;verticalAlign=middle;rounded=0;" vertex="1" parent="cFMmKUc3oPXXs-PaDQXI-36">
          <mxGeometry x="145" y="360" width="150" height="30" as="geometry" />
        </mxCell>
        <mxCell id="cFMmKUc3oPXXs-PaDQXI-13" value="REST Controller" style="rounded=0;whiteSpace=wrap;html=1;fontFamily=Lucida Console;" vertex="1" parent="cFMmKUc3oPXXs-PaDQXI-36">
          <mxGeometry x="20" y="400" width="160" height="40" as="geometry" />
        </mxCell>
        <mxCell id="cFMmKUc3oPXXs-PaDQXI-14" value="DTOs" style="rounded=0;whiteSpace=wrap;html=1;fontFamily=Lucida Console;" vertex="1" parent="cFMmKUc3oPXXs-PaDQXI-36">
          <mxGeometry x="250" y="400" width="160" height="40" as="geometry" />
        </mxCell>
        <mxCell id="cFMmKUc3oPXXs-PaDQXI-29" style="edgeStyle=orthogonalEdgeStyle;rounded=0;orthogonalLoop=1;jettySize=auto;html=1;exitX=0.5;exitY=1;exitDx=0;exitDy=0;entryX=0.5;entryY=0;entryDx=0;entryDy=0;dashed=1;dashPattern=8 8;" edge="1" parent="cFMmKUc3oPXXs-PaDQXI-36" source="cFMmKUc3oPXXs-PaDQXI-15" target="cFMmKUc3oPXXs-PaDQXI-26">
          <mxGeometry relative="1" as="geometry" />
        </mxCell>
        <mxCell id="cFMmKUc3oPXXs-PaDQXI-30" value="&lt;font face=&quot;Lucida Console&quot;&gt;Acceso a Repositorios&lt;/font&gt;" style="edgeLabel;html=1;align=center;verticalAlign=middle;resizable=0;points=[];" vertex="1" connectable="0" parent="cFMmKUc3oPXXs-PaDQXI-29">
          <mxGeometry x="-0.0642" y="1" relative="1" as="geometry">
            <mxPoint x="-1" y="5" as="offset" />
          </mxGeometry>
        </mxCell>
        <mxCell id="cFMmKUc3oPXXs-PaDQXI-15" value="" style="rounded=0;whiteSpace=wrap;html=1;" vertex="1" parent="cFMmKUc3oPXXs-PaDQXI-36">
          <mxGeometry x="12" y="525" width="416" height="120" as="geometry" />
        </mxCell>
        <mxCell id="cFMmKUc3oPXXs-PaDQXI-16" value="&lt;font face=&quot;Lucida Console&quot;&gt;Capa de Servicio&lt;/font&gt;" style="text;html=1;whiteSpace=wrap;strokeColor=none;fillColor=none;align=center;verticalAlign=middle;rounded=0;" vertex="1" parent="cFMmKUc3oPXXs-PaDQXI-36">
          <mxGeometry x="145" y="525" width="150" height="30" as="geometry" />
        </mxCell>
        <mxCell id="cFMmKUc3oPXXs-PaDQXI-17" value="Interfaces" style="rounded=0;whiteSpace=wrap;html=1;fontFamily=Lucida Console;" vertex="1" parent="cFMmKUc3oPXXs-PaDQXI-36">
          <mxGeometry x="30" y="565" width="160" height="40" as="geometry" />
        </mxCell>
        <mxCell id="cFMmKUc3oPXXs-PaDQXI-18" value="Implementaciones" style="rounded=0;whiteSpace=wrap;html=1;fontFamily=Lucida Console;" vertex="1" parent="cFMmKUc3oPXXs-PaDQXI-36">
          <mxGeometry x="250" y="565" width="160" height="40" as="geometry" />
        </mxCell>
        <mxCell id="cFMmKUc3oPXXs-PaDQXI-25" value="" style="rounded=0;whiteSpace=wrap;html=1;" vertex="1" parent="cFMmKUc3oPXXs-PaDQXI-36">
          <mxGeometry x="12" y="710" width="416" height="120" as="geometry" />
        </mxCell>
        <mxCell id="cFMmKUc3oPXXs-PaDQXI-26" value="&lt;font face=&quot;Lucida Console&quot;&gt;Capa de Persistencia&lt;/font&gt;" style="text;html=1;whiteSpace=wrap;strokeColor=none;fillColor=none;align=center;verticalAlign=middle;rounded=0;" vertex="1" parent="cFMmKUc3oPXXs-PaDQXI-36">
          <mxGeometry x="145" y="710" width="150" height="30" as="geometry" />
        </mxCell>
        <mxCell id="cFMmKUc3oPXXs-PaDQXI-27" value="Repositorios" style="rounded=0;whiteSpace=wrap;html=1;fontFamily=Lucida Console;" vertex="1" parent="cFMmKUc3oPXXs-PaDQXI-36">
          <mxGeometry x="30" y="750" width="160" height="40" as="geometry" />
        </mxCell>
        <mxCell id="cFMmKUc3oPXXs-PaDQXI-28" value="Entities" style="rounded=0;whiteSpace=wrap;html=1;fontFamily=Lucida Console;" vertex="1" parent="cFMmKUc3oPXXs-PaDQXI-36">
          <mxGeometry x="250" y="750" width="160" height="40" as="geometry" />
        </mxCell>
        <mxCell id="cFMmKUc3oPXXs-PaDQXI-31" value="" style="rounded=0;whiteSpace=wrap;html=1;" vertex="1" parent="cFMmKUc3oPXXs-PaDQXI-36">
          <mxGeometry y="930" width="440" height="120" as="geometry" />
        </mxCell>
        <mxCell id="cFMmKUc3oPXXs-PaDQXI-34" value="&lt;pre style=&quot;box-sizing: border-box; margin-top: 16px; margin-bottom: 16px; font-variant-numeric: normal; font-variant-east-asian: normal; font-variant-alternates: normal; font-size-adjust: none; font-kerning: auto; font-optical-sizing: auto; font-feature-settings: normal; font-variation-settings: normal; font-variant-position: normal; font-variant-emoji: normal; font-stretch: normal; font-size: 0.85em; line-height: 1.45; font-family: &amp;quot;JetBrains Mono&amp;quot;, Consolas, &amp;quot;Liberation Mono&amp;quot;, Menlo, Courier, monospace; padding: 16px; overflow: auto; border-radius: 3px; color: rgb(8, 8, 8); background-color: rgba(212, 222, 231, 0.247); text-align: start;&quot; class=&quot;code-fence&quot;&gt;&lt;code style=&quot;box-sizing: border-box; font-variant-numeric: normal; font-variant-east-asian: normal; font-variant-alternates: normal; font-variant-position: normal; font-variant-emoji: normal; font-kerning: auto; font-optical-sizing: auto; font-feature-settings: normal; font-variation-settings: normal; font-stretch: normal; font-size: 11.05px; line-height: inherit; font-family: &amp;quot;JetBrains Mono&amp;quot;, Consolas, &amp;quot;Liberation Mono&amp;quot;, Menlo, Courier, monospace; padding: 0px; margin: 0px; border-radius: 3px; background: transparent; word-break: normal; border: 0px; display: inline; max-width: initial; overflow: initial; overflow-wrap: normal;&quot;&gt;&lt;span style=&quot;box-sizing: border-box;&quot;&gt;BASE DE DATOS PostgreSQL &lt;/span&gt;&lt;/code&gt;&lt;/pre&gt;" style="text;html=1;whiteSpace=wrap;strokeColor=none;fillColor=none;align=center;verticalAlign=middle;rounded=0;" vertex="1" parent="cFMmKUc3oPXXs-PaDQXI-36">
          <mxGeometry x="140" y="940" width="160" height="30" as="geometry" />
        </mxCell>
        <mxCell id="cFMmKUc3oPXXs-PaDQXI-35" value="&lt;pre style=&quot;box-sizing: border-box; margin-top: 16px; margin-bottom: 16px; font-variant-numeric: normal; font-variant-east-asian: normal; font-variant-alternates: normal; font-size-adjust: none; font-kerning: auto; font-optical-sizing: auto; font-feature-settings: normal; font-variation-settings: normal; font-variant-position: normal; font-variant-emoji: normal; font-stretch: normal; font-size: 0.85em; line-height: 1.45; font-family: &amp;quot;JetBrains Mono&amp;quot;, Consolas, &amp;quot;Liberation Mono&amp;quot;, Menlo, Courier, monospace; padding: 16px; overflow: auto; border-radius: 3px; color: rgb(8, 8, 8); background-color: rgba(212, 222, 231, 0.247); text-align: start;&quot; class=&quot;code-fence&quot;&gt;&lt;code style=&quot;box-sizing: border-box; font-variant-numeric: normal; font-variant-east-asian: normal; font-variant-alternates: normal; font-variant-position: normal; font-variant-emoji: normal; font-kerning: auto; font-optical-sizing: auto; font-feature-settings: normal; font-variation-settings: normal; font-stretch: normal; font-size: 11.05px; line-height: inherit; font-family: &amp;quot;JetBrains Mono&amp;quot;, Consolas, &amp;quot;Liberation Mono&amp;quot;, Menlo, Courier, monospace; padding: 0px; margin: 0px; border-radius: 3px; background: transparent; word-break: normal; border: 0px; display: inline; max-width: initial; overflow: initial; overflow-wrap: normal;&quot;&gt;&lt;span style=&quot;box-sizing: border-box;&quot;&gt;  Schema: sicofar                                                 &lt;br&gt;&lt;/span&gt;&lt;span style=&quot;box-sizing: border-box;&quot;&gt;- 20 Tablas principales                                         &lt;br&gt;&lt;/span&gt;&lt;span style=&quot;box-sizing: border-box;&quot;&gt;- 18 Enums nativos de PostgreSQL                               &lt;br&gt;&lt;/span&gt;&lt;span style=&quot;box-sizing: border-box;&quot;&gt;- Constraints, Indexes, Foreign Keys                            &lt;br&gt;&lt;/span&gt;&lt;span style=&quot;box-sizing: border-box;&quot;&gt;- Triggers de auditoría   &lt;/span&gt;&lt;/code&gt;&lt;/pre&gt;" style="text;html=1;whiteSpace=wrap;strokeColor=none;fillColor=none;align=center;verticalAlign=middle;rounded=0;" vertex="1" parent="cFMmKUc3oPXXs-PaDQXI-36">
          <mxGeometry x="5" y="950" width="420" height="100" as="geometry" />
        </mxCell>
      </root>
    </mxGraphModel>
  </diagram>
</mxfile>
